<svg width="281" height="41" viewBox="0 0 281 41" fill="none" xmlns="http://www.w3.org/2000/svg">
<g clip-path="url(#clip0_19_342)">
<path d="M0.12052 38.133C0.682721 37.1372 1.24492 36.7964 2.28232 33.5551C3.31971 30.3139 3.75475 28.0283 3.75475 28.0283C3.75475 28.0283 6.02363 27.2397 11.4783 26.8588C18.3318 26.3843 24.2818 26.939 27.3337 27.3868C28.0565 27.4937 28.4782 27.6006 28.4782 27.7009C28.4782 27.8078 28.3176 27.9949 27.4609 27.9815C23.7865 27.9415 15.5208 28.3692 12.4086 28.6699C8.9618 29.004 5.35434 29.7525 5.35434 29.7525C5.35434 29.7525 5.14017 31.1159 4.61813 32.8601C4.09608 34.6044 3.62089 35.7137 3.62089 35.7137C3.62089 35.7137 11.7594 32.9537 17.4617 32.6864C22.9967 32.4257 31.0215 33.1809 33.4242 33.769C35.827 34.3571 39.8895 35.6068 39.8895 35.6068L40.6927 34.7247C40.6927 34.7247 39.1265 32.8802 36.8443 30.7483C34.2207 28.3023 30.6801 25.4153 27.9361 23.5775C19.8912 18.1977 10.8893 15.1302 10.8893 15.1302C10.8893 15.1302 13.4192 13.3793 15.6881 11.5014C17.957 9.62344 19.3893 8.13314 19.7105 7.74553C20.0318 7.35792 20.4869 7.48489 20.7479 7.74553C21.009 8.00616 25.2255 11.5014 26.4569 12.7978L31.3896 17.9838C31.3896 17.9838 31.5837 18.3714 31.0683 18.3714C30.553 18.3714 30.0979 17.917 30.0979 17.917C30.0979 17.917 25.0983 13.5129 23.6058 12.2164C22.1133 10.9199 20.5538 10.1447 20.5538 10.1447C20.5538 10.1447 19.6436 10.7261 18.7401 11.5682C17.8365 12.4102 15.6881 14.482 15.6881 14.482C15.6881 14.482 19.0613 16.1527 20.2326 16.7074C22.5015 17.79 27.8558 21.1983 29.79 22.7087C33.3774 25.5155 36.8309 28.8771 37.8817 29.9196C38.9659 31.0022 41.5159 34.1967 41.5159 34.1967L43.1155 33.1141C43.1155 33.1141 40.1305 22.682 38.2699 18.9462C35.1844 12.7578 31.8849 7.93265 30.0912 5.6003C28.2774 3.23452 27.4943 2.49272 27.1062 1.90461C26.8652 1.54373 27.0727 1.35661 27.5278 1.28978C27.9829 1.22295 31.2557 1.41676 33.8526 1.02915C35.8136 0.735095 35.5526 0.661583 39.1065 -0.00671387C39.1065 -0.00671387 39.3675 0.83534 39.8828 2.00486C40.3982 3.17438 41.5694 6.79655 41.9576 8.68114C42.3458 10.5657 42.4127 11.6617 42.4127 11.6617C42.4127 11.6617 42.4127 13.2523 42.1517 12.858C41.8907 12.4637 41.3753 10.0712 40.532 7.67201C39.6887 5.27283 38.1293 2.09842 38.1293 2.09842C38.1293 2.09842 36.4092 2.64642 34.5955 2.84023C32.5274 3.06077 32.34 3.00062 30.9947 3.16101C30.9947 3.16101 34.823 7.81904 37.286 12.9783C40.512 19.7147 41.4155 22.6552 42.3659 25.8497C43.2226 28.7167 44.1797 32.7599 44.1797 32.7599L46.1674 32.2854C46.1674 32.2854 48.5033 26.0635 49.1525 21.5926C49.8017 17.1217 50.4509 11.6818 50.1898 8.11309C49.9288 4.54439 49.7347 2.7333 49.5406 1.89125C49.3465 1.04919 49.2796 0.855389 49.6678 1.04919C50.056 1.243 51.4414 2.23876 52.5859 2.92711C53.8843 3.70233 54.9284 4.28375 55.8654 4.61122C56.9697 4.99883 57.7461 5.31293 57.7126 5.45327C57.6122 5.8743 56.5414 5.71391 55.6378 5.58025C54.7343 5.44659 52.1977 4.47756 52.1977 4.47756C52.1977 4.47756 52.3784 7.33118 52.3249 9.33607C52.2245 13.3525 51.254 19.6412 50.3773 23.3302C49.5072 26.9992 47.4993 32.272 47.4993 32.272C47.4993 32.272 49.8552 32.6329 50.8324 33.1809C51.8296 33.7423 52.8202 34.5643 53.3824 35.2526C54.0182 36.0345 54.3997 36.2885 54.7209 36.4823C55.0422 36.6761 63.5488 36.362 66.0118 36.2885C70.3822 36.1615 86.8601 36.3353 89.3297 36.3754C92.4888 36.4288 96.7387 36.6494 99.9312 36.8498C103.579 37.0771 106.109 37.3912 106.765 37.4981C109.013 37.8523 93.9612 37.3711 91.1502 37.3711C88.8813 37.3711 71.0783 37.458 67.3771 37.585C63.676 37.7119 55.8252 38.1062 55.8252 38.1062C55.8252 38.1062 54.3997 38.3 53.9445 38.1062C53.4894 37.9124 50.9997 35.4732 48.6237 35.2526C46.2344 35.0388 44.6415 35.2727 42.8277 36.5023C41.4557 37.4313 41.0742 37.9525 40.4919 37.7988C39.9096 37.6451 32.0321 35.5266 26.216 34.992C19.9247 34.4106 14.3629 34.9051 9.69132 36.0278C6.29134 36.8432 2.35594 38.3602 1.51264 38.6208C0.669335 38.8815 -0.388138 38.9416 0.0870556 38.0996L0.12052 38.133Z" fill="#FFC62D"/>
<path d="M66.4869 30.6214L64.0775 31.0758V29.1311C63.1204 30.5011 61.6681 31.2429 59.9681 31.2429C57.0232 31.2429 54.741 29.0041 54.741 25.7762C54.741 22.9159 56.8158 20.3897 60.2626 20.3897C61.7952 20.3897 63.087 21.0113 63.957 22.2142V19.8952C63.957 17.9906 62.9598 17.4091 60.7177 17.4091C59.7205 17.4091 58.6429 17.5361 57.4783 17.7834L58.1008 15.2572C59.4728 15.1302 60.6307 15.05 61.4606 15.05C65.483 15.05 66.4803 16.253 66.4803 19.7348V30.6347L66.4869 30.6214ZM57.2307 25.7294C57.2307 27.5539 58.6831 29.0442 60.6307 29.0442C62.5783 29.0442 63.9905 27.5138 63.9905 25.7695C63.9905 24.0253 62.5382 22.4949 60.6307 22.4949C58.7232 22.4949 57.2307 23.9852 57.2307 25.7294Z" fill="white"/>
<path d="M73.4945 24.2859C73.4945 27.1863 74.5319 28.6766 76.6468 28.6766C78.9692 28.6766 80.5086 26.9391 80.5086 24.0787V15.5446L83.1255 15.1302V30.5813L80.5086 30.9555V28.7568C79.431 30.2872 77.6039 31.2028 75.7366 31.2028C72.3366 31.2028 70.8374 29.1311 70.8374 24.9475V15.5446L73.4945 15.1302V24.2859Z" fill="white"/>
<path d="M103.043 30.6214L100.386 30.9956V28.2623C98.9742 30.167 96.8994 31.2429 94.5368 31.2429C90.2199 31.2429 86.6526 27.594 86.6526 23.083C86.6526 18.572 90.1797 14.9231 94.7041 14.9231C97.1135 14.9231 99.1415 15.959 100.386 17.8235V1.08268L103.043 0.668335V30.6214ZM89.3498 23.1231C89.3498 26.2307 91.7994 28.8437 94.8246 28.8437C98.0171 28.8437 100.427 26.2307 100.427 23.1699C100.427 19.8551 97.9769 17.4092 94.9049 17.4092C91.8329 17.4092 89.3431 19.9353 89.3431 23.1298L89.3498 23.1231Z" fill="white"/>
<path d="M111.215 9.12232L109.1 11.2341L107.026 9.12232L109.1 7.0105L111.215 9.12232ZM110.426 30.7484L107.809 31.1226V15.5446L110.426 15.1303V30.7484Z" fill="white"/>
<path d="M130.511 23.0429C130.511 27.5205 126.944 31.2496 122.292 31.2496C117.641 31.2496 114.12 27.5606 114.12 23.0429C114.12 18.5252 117.687 14.7961 122.292 14.7961C126.897 14.7961 130.511 18.5653 130.511 23.0429ZM116.817 23.0429C116.817 26.2307 119.227 28.7635 122.339 28.7635C125.451 28.7635 127.814 26.1505 127.814 23.0429C127.814 19.9353 125.451 17.3223 122.339 17.3223C119.227 17.3223 116.817 19.8485 116.817 23.0429Z" fill="white"/>
<path d="M136.193 17.8235C137.518 15.9991 139.593 14.9632 141.922 14.9632C146.36 14.9632 149.847 18.6121 149.847 23.21C149.847 27.8079 146.447 31.2496 141.547 31.2496C138.931 31.2496 136.608 30.1335 135.156 28.142C133.576 25.9901 133.536 23.7112 133.536 21.0581V1.08268L136.193 0.668335V17.8235ZM136.153 23.083C136.153 26.2708 138.603 28.8036 141.715 28.8036C144.827 28.8036 147.236 26.1906 147.236 23.1699C147.236 19.9353 144.787 17.3691 141.715 17.3691C138.643 17.3691 136.153 19.8551 136.153 23.0897V23.083Z" fill="white"/>
<path d="M168.727 23.0429C168.727 27.5205 165.16 31.2496 160.508 31.2496C155.857 31.2496 152.336 27.5606 152.336 23.0429C152.336 18.5252 155.904 14.7961 160.508 14.7961C165.113 14.7961 168.727 18.5653 168.727 23.0429ZM155.034 23.0429C155.034 26.2307 157.443 28.7635 160.555 28.7635C163.667 28.7635 166.03 26.1505 166.03 23.0429C166.03 19.9353 163.667 17.3223 160.555 17.3223C157.443 17.3223 155.034 19.8485 155.034 23.0429Z" fill="white"/>
<path d="M187.521 23.0429C187.521 27.5205 183.953 31.2496 179.302 31.2496C174.65 31.2496 171.13 27.5606 171.13 23.0429C171.13 18.5252 174.697 14.7961 179.302 14.7961C183.907 14.7961 187.521 18.5653 187.521 23.0429ZM173.827 23.0429C173.827 26.2307 176.237 28.7635 179.349 28.7635C182.461 28.7635 184.823 26.1505 184.823 23.0429C184.823 19.9353 182.461 17.3223 179.349 17.3223C176.237 17.3223 173.827 19.8485 173.827 23.0429Z" fill="white"/>
<path d="M193.705 22.956L201.382 14.9565L203.122 16.4869L196.57 23.1966L203.376 29.9932L201.221 31.4434L193.712 23.8181V30.735L191.055 31.1092V1.08268L193.712 0.668335V22.956H193.705Z" fill="white"/>
<path d="M211.642 26.4312C211.642 27.4336 212.217 27.9549 213.228 27.9549C214.091 27.9549 214.694 27.467 214.694 26.7787C214.694 25.8564 213.884 25.6025 212.365 24.9943C211.501 24.6468 210.464 24.306 209.373 23.5842C208.309 22.8959 207.673 21.6328 207.673 20.1358C207.673 17.0617 209.714 15.1102 213.168 15.1102C216.621 15.1102 218.75 16.948 218.837 19.8485H214.747C214.687 18.8995 214.172 18.3515 213.308 18.3515C212.358 18.3515 211.809 18.8126 211.809 19.4742C211.809 20.5368 212.933 20.6838 214.975 21.459C217.826 22.5484 219.118 23.6978 219.118 26.1705C219.118 29.3049 216.989 31.283 213.248 31.283C209.507 31.283 207.492 29.5588 207.352 26.2842H211.642V26.4245V26.4312Z" fill="white"/>
<path d="M228.22 30.9155C224.706 30.9155 223.327 30.3675 223.327 27.5807V19.5076H221.627V15.4845H223.327V11.5482H228.36V15.4845H230.288V19.5076H228.36V25.6292C228.36 26.351 228.648 26.6651 229.311 26.6651H230.288V30.9155H228.213H228.22Z" fill="white"/>
<path d="M233.025 23.2167C233.025 18.3916 236.278 15.1102 241.11 15.1102C245.943 15.1102 249.195 18.4116 249.195 23.2167C249.195 28.0217 245.916 31.2897 241.11 31.2897C236.305 31.2897 233.025 28.015 233.025 23.2167ZM244.102 23.2167C244.102 20.8309 242.891 19.3405 241.11 19.3405C239.33 19.3405 238.119 20.8643 238.119 23.2167C238.119 25.5691 239.357 27.0661 241.11 27.0661C242.864 27.0661 244.102 25.5691 244.102 23.2167Z" fill="white"/>
<path d="M252.421 15.4845H257.314V18.298C258.177 16.1996 259.502 15.1971 261.484 15.1971C261.684 15.1971 261.858 15.1971 262.059 15.2239V20.5368C261.484 20.4232 260.968 20.3363 260.56 20.3363C258.171 20.3363 257.454 21.713 257.454 24.8473V30.9088H252.421V15.4778V15.4845Z" fill="white"/>
<path d="M272.42 31.2897C267.239 31.2897 263.873 28.0418 263.873 23.3036C263.873 18.5654 267.213 15.1169 272.246 15.1169C277.54 15.1169 280.732 18.3649 280.732 23.9652V24.3394H269.107C269.281 26.2641 270.546 27.4136 272.473 27.4136C273.852 27.4136 274.949 26.8389 275.492 25.7763L280.357 26.7253C279.059 29.5989 276.181 31.2964 272.413 31.2964L272.42 31.2897ZM275.646 21.9803C275.385 19.9955 274.146 18.846 272.279 18.846C270.412 18.846 269.2 20.0557 269.053 21.9803H275.646Z" fill="white"/>
<path d="M258.13 40.178L257.314 40.9933L256.497 40.178L257.314 39.3627L258.13 40.178Z" fill="white"/>
<path d="M264.796 36.0546C264.248 35.7472 263.799 35.5734 263.19 35.5734C261.985 35.5734 261.055 36.5358 261.055 37.7855C261.055 39.0352 261.985 39.9641 263.19 39.9641C263.752 39.9641 264.301 39.7703 264.877 39.356L265.198 40.2716C264.542 40.7394 263.819 40.9599 263.17 40.9599C261.37 40.9599 260.004 39.5164 260.004 37.7855C260.004 36.0546 261.336 34.6111 263.17 34.6111C263.846 34.6111 264.535 34.8049 265.165 35.1725L264.796 36.0546Z" fill="white"/>
<path d="M272.185 37.7855C272.185 39.5164 270.807 40.9599 269.006 40.9599C267.206 40.9599 265.841 39.5298 265.841 37.7855C265.841 36.0413 267.219 34.5911 269.006 34.5911C270.793 34.5911 272.185 36.048 272.185 37.7855ZM266.885 37.7855C266.885 39.0219 267.815 39.9976 269.02 39.9976C270.224 39.9976 271.141 38.9885 271.141 37.7855C271.141 36.5826 270.224 35.5735 269.02 35.5735C267.815 35.5735 266.885 36.5492 266.885 37.7855Z" fill="white"/>
<path d="M279.266 34.6779C280.505 34.6779 281 35.4798 281 37.1172V40.7728L279.969 40.9198V37.2642C279.969 36.2216 279.695 35.6736 278.992 35.6736C278.202 35.6736 277.774 36.2818 277.774 37.4714V40.7728L276.763 40.9198V37.2642C276.763 36.2216 276.509 35.6736 275.766 35.6736C275.023 35.6736 274.561 36.2818 274.561 37.438V40.7728L273.551 40.9198V34.9185L274.561 34.7714V35.5734C274.93 34.9987 275.559 34.6578 276.154 34.6578C276.797 34.6578 277.312 35.0254 277.6 35.687C278.035 35.0321 278.678 34.6779 279.273 34.6779H279.266Z" fill="white"/>
</g>
<defs>
<clipPath id="clip0_19_342">
<rect width="281" height="41" fill="white"/>
</clipPath>
</defs>
</svg>
